<svg width="100" height="102" viewBox="0 0 100 102" fill="none" xmlns="http://www.w3.org/2000/svg">
<path d="M17.2365 17.5388C19.3011 15.4328 22.094 14.2536 25.0009 14.25H74.9991C77.906 14.2536 80.6989 15.4328 82.7635 17.5388C84.8294 19.646 85.9966 22.5091 86 25.5017V76.4983C85.9966 79.4909 84.8294 82.354 82.7635 84.4612C80.6986 86.5674 77.9054 87.7466 74.9982 87.75H25.0018C22.0946 87.7466 19.3014 86.5674 17.2365 84.4612C15.1708 82.3542 14.0036 79.4914 14 76.4991V25.5009C14.0036 22.5086 15.1708 19.6458 17.2365 17.5388ZM46.551 56.215C47.5692 56.9089 48.7695 57.2812 50 57.2812C51.6507 57.2812 53.2277 56.6121 54.3857 55.431C55.5427 54.2508 56.1875 52.6564 56.1875 51C56.1875 49.7642 55.8284 48.5538 55.1523 47.5217C54.4759 46.4893 53.5116 45.6801 52.3776 45.201C51.2433 44.7217 49.9934 44.5958 48.7873 44.8406C47.5813 45.0853 46.4777 45.6884 45.6143 46.569C44.7513 47.4493 44.1668 48.5673 43.9303 49.7801C43.6938 50.9928 43.8149 52.25 44.2795 53.3941C44.7442 54.5384 45.5331 55.5212 46.551 56.215Z" fill="#FFD600" stroke="#FFD600" stroke-width="3"/>
</svg>
