<svg width="100" height="102" viewBox="0 0 100 102" fill="none" xmlns="http://www.w3.org/2000/svg">
<path d="M25.0009 14.25H74.9991C77.906 14.2536 80.6989 15.4328 82.7635 17.5388C84.8294 19.646 85.9966 22.5091 86 25.5017V76.4983C85.9966 79.4909 84.8294 82.354 82.7635 84.4612C80.6986 86.5674 77.9054 87.7466 74.9982 87.75H25.0018C22.0946 87.7466 19.3014 86.5674 17.2365 84.4612C15.1708 82.3542 14.0036 79.4914 14 76.4991V25.5009C14.0036 22.5086 15.1708 19.6458 17.2365 17.5388C19.3011 15.4328 22.094 14.2536 25.0009 14.25ZM32.4885 41.8712C33.5067 42.5652 34.707 42.9375 35.9375 42.9375C37.5882 42.9375 39.1652 42.2684 40.3232 41.0872C41.4802 39.9071 42.125 38.3127 42.125 36.6562C42.125 35.4205 41.7659 34.2101 41.0898 33.178C40.4134 32.1455 39.4491 31.3363 38.3151 30.8572C37.1808 30.378 35.9309 30.2521 34.7248 30.4968C33.5188 30.7415 32.4152 31.3447 31.5518 32.2253C30.6888 33.1056 30.1043 34.2236 29.8678 35.4364C29.6313 36.649 29.7524 37.9063 30.217 39.0503C30.6817 40.1947 31.4706 41.1775 32.4885 41.8712ZM46.551 56.215C47.5692 56.9089 48.7695 57.2812 50 57.2812C51.6507 57.2812 53.2277 56.6121 54.3857 55.431C55.5427 54.2508 56.1875 52.6564 56.1875 51C56.1875 49.7642 55.8284 48.5538 55.1523 47.5217C54.4759 46.4893 53.5116 45.6801 52.3776 45.201C51.2433 44.7217 49.9934 44.5958 48.7873 44.8406C47.5813 45.0853 46.4777 45.6884 45.6143 46.569C44.7513 47.4493 44.1668 48.5673 43.9303 49.7801C43.6938 50.9928 43.8149 52.25 44.2795 53.3941C44.7442 54.5384 45.5331 55.5212 46.551 56.215ZM60.6135 70.5587C61.6317 71.2527 62.832 71.625 64.0625 71.625C65.7132 71.625 67.2902 70.9559 68.4482 69.7747C69.6052 68.5946 70.25 67.0002 70.25 65.3438C70.25 64.108 69.8909 62.8976 69.2148 61.8655C68.5384 60.833 67.5741 60.0238 66.4401 59.5447C65.3058 59.0655 64.0559 58.9396 62.8498 59.1843C61.6438 59.429 60.5402 60.0322 59.6768 60.9128C58.8138 61.7931 58.2293 62.9111 57.9928 64.1239C57.7563 65.3365 57.8774 66.5938 58.342 67.7378C58.8067 68.8822 59.5956 69.865 60.6135 70.5587Z" fill="#FFD600" stroke="#FFD600" stroke-width="3"/>
</svg>
