<svg width="100" height="102" viewBox="0 0 100 102" fill="none" xmlns="http://www.w3.org/2000/svg">
<path d="M25.0009 14.25H74.9991C77.906 14.2536 80.6989 15.4328 82.7635 17.5388C84.8294 19.646 85.9966 22.5091 86 25.5017V76.4983C85.9966 79.4909 84.8294 82.354 82.7635 84.4612C80.6986 86.5674 77.9054 87.7466 74.9982 87.75H25.0018C22.0946 87.7466 19.3014 86.5674 17.2365 84.4612C15.1708 82.3542 14.0036 79.4914 14 76.4991V25.5009C14.0036 22.5086 15.1708 19.6458 17.2365 17.5388C19.3011 15.4328 22.094 14.2536 25.0009 14.25ZM38.7385 48.2462C39.7567 48.9402 40.957 49.3125 42.1875 49.3125C43.8382 49.3125 45.4152 48.6434 46.5732 47.4622C47.7302 46.2821 48.375 44.6877 48.375 43.0312C48.375 41.7955 48.0159 40.5851 47.3398 39.553C46.6634 38.5205 45.6991 37.7113 44.5651 37.2322C43.4308 36.753 42.1809 36.6271 40.9748 36.8718C39.7688 37.1165 38.6652 37.7197 37.8018 38.6003C36.9388 39.4806 36.3543 40.5986 36.1178 41.8114C35.8813 43.024 36.0024 44.2813 36.467 45.4253C36.9317 46.5697 37.7206 47.5525 38.7385 48.2462ZM54.3635 64.1837C55.3817 64.8777 56.582 65.25 57.8125 65.25C59.4632 65.25 61.0402 64.5809 62.1982 63.3997C63.3552 62.2196 64 60.6252 64 58.9688C64 57.733 63.6409 56.5226 62.9648 55.4905C62.2884 54.458 61.3241 53.6488 60.1901 53.1697C59.0558 52.6905 57.8059 52.5646 56.5998 52.8093C55.3938 53.054 54.2902 53.6572 53.4268 54.5378C52.5638 55.4181 51.9793 56.5361 51.7428 57.7489C51.5063 58.9615 51.6274 60.2188 52.092 61.3628C52.5567 62.5072 53.3456 63.49 54.3635 64.1837Z" fill="#FFD600" stroke="#FFD600" stroke-width="3"/>
</svg>
