<svg width="113" height="39" viewBox="0 0 113 39" fill="none" xmlns="http://www.w3.org/2000/svg">
<path d="M50.3882 1.27832L56.5135 17.6237H54.1336L52.625 13.4542H45.7454L44.2629 17.6237H42L48.1513 1.27832H50.3882ZM46.4867 11.3823H51.8708L49.1917 3.93861L46.4867 11.3823Z" fill="white"/>
<path d="M60.1812 0V17.5732H57.9443V0H60.1812Z" fill="white"/>
<path d="M88.7262 17.6241H86.4894V10.5257C86.4894 8.42821 85.592 7.16202 83.4072 7.16202C81.4175 7.16202 79.8569 8.28752 79.7788 10.1421V17.6369H77.542V5.43539H79.7788V7.21318C80.7152 5.99814 82.2628 5.19238 84.0445 5.19238C87.1917 5.19238 88.7132 7.48176 88.7132 10.5385L88.7262 17.6241Z" fill="white"/>
<path d="M92.6929 11.5232C92.6929 13.9405 94.3575 15.6927 97.3096 15.6927V17.6239C93.4602 17.6239 90.4561 15.2322 90.4561 11.5232C90.4561 7.91644 92.992 5.17941 96.4123 5.17941C98.194 5.17941 99.7806 5.93401 100.834 7.13626V0.0634766H103.071V17.6367H100.834V10.5384C100.834 8.70941 99.2994 7.12347 96.8155 7.12347C94.1885 7.11068 92.6929 8.99079 92.6929 11.5232Z" fill="white"/>
<path d="M72.5616 5.4099L72.5746 7.11095C71.5212 5.9215 69.9346 5.17969 68.153 5.17969C64.7327 5.19248 62.2097 7.94229 62.2227 11.549C62.2357 15.2581 65.2529 17.637 69.1023 17.6242L69.0893 15.6929C66.1372 15.7057 64.4596 13.9535 64.4596 11.5362C64.4466 9.00385 65.9291 7.11095 68.5561 7.09816C71.0401 7.08537 72.5876 8.67131 72.5876 10.5003L72.6267 17.5986L74.8635 17.5858L74.7985 5.38432L72.5616 5.4099Z" fill="white"/>
<path d="M112.292 5.42285V7.52039H112.07C110.055 7.59713 108.13 8.761 108.026 10.6155V17.6244H105.789V5.42285H108.026V7.59712C108.975 6.30535 110.51 5.42285 112.292 5.42285Z" fill="white"/>
<path d="M52.7681 26.576C52.7681 28.6224 51.5716 30.3362 49.7379 31.1164L54.8228 38.1892H52.0918L47.358 31.5512H44.3539V38.1892H42V21.8438H47.41C50.4792 21.8438 52.7681 23.8645 52.7681 26.576ZM44.3539 23.8006V29.6072H47.41C49.3218 29.6072 50.4142 28.3154 50.4142 26.576C50.4142 24.9645 49.3478 23.7878 47.41 23.8006H44.3539Z" fill="white"/>
<path d="M75.3709 38.4071C71.7295 38.4071 69.0244 35.67 69.0244 32.0889C69.0244 28.4821 71.7295 25.7451 75.3709 25.7451C76.6584 25.7451 77.9458 25.9114 78.9212 26.423V28.5205H78.7001C77.7378 27.9322 76.8664 27.6892 75.3709 27.6892C72.7439 27.6892 71.2483 29.5437 71.2483 32.0761C71.2483 34.5957 72.7308 36.4502 75.3709 36.4502C76.8534 36.4502 77.7248 36.1816 78.7001 35.5933H78.9212V37.6908C77.9588 38.2152 76.6584 38.4071 75.3709 38.4071Z" fill="white"/>
<path d="M83.3814 20.6289V38.2021H81.1445V20.6289H83.3814ZM89.3377 25.9879H91.9907L86.8537 31.9223L91.9907 38.1894H89.0906L84.1227 31.9863L89.3377 25.9879Z" fill="white"/>
<path d="M98.4803 25.7451C97.1538 25.7451 96.0484 26.0009 95.2291 26.4741L97.2058 27.8171C97.557 27.7275 97.9861 27.6892 98.4803 27.6892C100.067 27.6892 101.042 27.9833 102.057 28.5973H102.278V26.4997C101.25 25.9625 99.8588 25.7451 98.4803 25.7451ZM98.1812 31.0401C96.9848 30.7587 95.9183 30.5541 95.8143 29.5309L93.7725 28.1368C93.6295 28.5077 93.5645 28.917 93.5645 29.3519C93.5645 31.718 95.5542 32.4982 97.778 32.933C99.2606 33.2272 100.561 33.419 100.561 34.8131V34.8259L102.538 36.1688C102.707 35.7724 102.798 35.2991 102.798 34.762C102.798 31.8459 100.288 31.5005 98.1812 31.0401ZM97.726 36.4886C96.0354 36.4886 94.969 36.22 93.9026 35.5805H93.6815V37.678C94.7479 38.2408 96.2435 38.4326 97.726 38.4326C98.8835 38.4326 100.054 38.2536 100.977 37.7804L98.9355 36.3863C98.5844 36.4502 98.1812 36.4886 97.726 36.4886Z" fill="white"/>
<path d="M61.4294 25.7705C60.1419 25.7705 58.9715 26.1158 57.9961 26.717L59.8558 27.9831C60.324 27.8169 60.8572 27.7146 61.4294 27.7146C64.0564 27.7146 65.552 29.5691 65.552 32.1015C65.552 33.5595 65.0448 34.8001 64.1084 35.5803L65.8251 36.757C67.0476 35.6187 67.7888 33.9688 67.7888 32.1015C67.7758 28.5075 65.0708 25.7705 61.4294 25.7705ZM61.4294 36.4884C58.8024 36.4884 57.3069 34.6339 57.3069 32.1143C57.3069 31.0655 57.5539 30.1318 58.0481 29.4028L56.3315 28.2389C55.5382 29.3005 55.083 30.6306 55.083 32.1271C55.083 35.7082 57.788 38.4452 61.4424 38.4452C62.2747 38.4452 63.068 38.3045 63.7833 38.036L61.5205 36.4884C61.4814 36.4884 61.4554 36.4884 61.4294 36.4884Z" fill="white"/>
<path d="M33 15.9754V20.4544H24.0407L18.4661 14.9719L17.5204 14.0418L16.4751 13.0139L15.4547 14.0418L14.509 14.9719L13.19 16.2691L12.2195 17.1991L9.95475 19.4264L8.9095 20.4544H0V15.9999H11L3.2104 8.3391L6.44569 5.18179L14.2104 12.8181V2H18.7647V12.8181L26.5543 5.15731L29.7647 8.3391L21.9751 15.9754H33Z" fill="#F3821A"/>
<path d="M29.7653 30.563L26.5549 33.7203L18.7653 26.0595V36.9021H14.211V26.084L6.44624 33.7203L3.21094 30.563L11.0006 22.9022L13.2653 20.675L14.211 19.7449L15.5549 18.4232L16.5006 17.4932L17.4463 18.4232L29.7653 30.563Z" fill="white"/>
</svg>
