<svg width="11" height="14" viewBox="0 0 11 14" fill="none" xmlns="http://www.w3.org/2000/svg">
<path d="M5.5 0C4.04184 0.00173014 2.6439 0.581748 1.61282 1.61282C0.581748 2.6439 0.00173014 4.04184 0 5.5C0 10.2061 5 13.7607 5.21289 13.9097C5.29709 13.9685 5.3973 14 5.5 14C5.6027 14 5.70291 13.9685 5.78711 13.9097C6 13.7607 11 10.2061 11 5.5C10.9983 4.04184 10.4183 2.6439 9.38718 1.61282C8.3561 0.581748 6.95816 0.00172997 5.5 0ZM5.50037 3.50018C5.89593 3.50018 6.28261 3.61748 6.61151 3.83724C6.9404 4.057 7.19675 4.36936 7.34813 4.73481C7.4995 5.10027 7.53911 5.5024 7.46194 5.89036C7.38477 6.27832 7.19428 6.63469 6.91458 6.91439C6.63487 7.1941 6.27851 7.38458 5.89055 7.46175C5.50258 7.53892 5.10045 7.49932 4.735 7.34794C4.36955 7.19657 4.05719 6.94022 3.83743 6.61132C3.61766 6.28242 3.50037 5.89574 3.50037 5.50018C3.50036 5.23754 3.55208 4.97746 3.65259 4.73481C3.7531 4.49215 3.90042 4.27167 4.08614 4.08595C4.27185 3.90023 4.49234 3.75291 4.73499 3.65241C4.97764 3.5519 5.23772 3.50017 5.50037 3.50018Z" fill="#344054"/>
</svg>
