<svg width="14" height="14" viewBox="0 0 14 14" fill="none" xmlns="http://www.w3.org/2000/svg">
<path d="M13.3199 9.40233L10.0359 7.99489C9.8644 7.92108 9.67719 7.89136 9.49129 7.90844C9.3054 7.92552 9.12674 7.98885 8.9716 8.09267L7.2157 9.26313C6.14255 8.74118 5.27398 7.87644 4.74729 6.80561L4.74743 6.80547L5.91378 5.02329C6.0153 4.86857 6.0769 4.6911 6.09305 4.50675C6.10921 4.3224 6.07942 4.13693 6.00635 3.96691L4.59762 0.680061C4.50172 0.45695 4.33614 0.270903 4.12565 0.149776C3.91517 0.0286493 3.67112 -0.0210398 3.43003 0.00814857C2.48268 0.129953 1.61208 0.592479 0.980853 1.30932C0.349631 2.02616 0.000968243 2.94829 0 3.90344C0 9.47073 4.52928 14 10.0966 14C11.0518 13.999 11.9739 13.6504 12.6907 13.0191C13.4076 12.3879 13.8701 11.5173 13.9919 10.5699C14.021 10.3288 13.9713 10.0848 13.8501 9.87433C13.729 9.66386 13.543 9.49827 13.3199 9.40233Z" fill="#344054"/>
</svg>
