<svg width="40" height="40" viewBox="0 0 40 40" fill="none" xmlns="http://www.w3.org/2000/svg">
<path fill-rule="evenodd" clip-rule="evenodd" d="M20 0C8.9543 0 0 8.9543 0 20C0 31.0457 8.9543 40 20 40C31.0457 40 40 31.0457 40 20C40 8.9543 31.0457 0 20 0ZM15.6028 9.39781C16.7405 9.34603 17.1041 9.33336 20.001 9.33336H19.9977C22.8955 9.33336 23.2577 9.34603 24.3955 9.39781C25.5311 9.44981 26.3066 9.62959 26.9867 9.89337C27.6889 10.1656 28.2822 10.53 28.8756 11.1234C29.4689 11.7163 29.8334 12.3114 30.1067 13.013C30.3689 13.6912 30.5489 14.4663 30.6022 15.6019C30.6534 16.7397 30.6667 17.1032 30.6667 20.0001C30.6667 22.8971 30.6534 23.2597 30.6022 24.3975C30.5489 25.5326 30.3689 26.308 30.1067 26.9864C29.8334 27.6878 29.4689 28.2829 28.8756 28.8758C28.2829 29.4691 27.6887 29.8345 26.9873 30.1069C26.3086 30.3707 25.5326 30.5505 24.3971 30.6025C23.2593 30.6543 22.8968 30.6669 19.9997 30.6669C17.103 30.6669 16.7397 30.6543 15.6019 30.6025C14.4665 30.5505 13.6912 30.3707 13.0125 30.1069C12.3114 29.8345 11.7163 29.4691 11.1236 28.8758C10.5305 28.2829 10.166 27.6878 9.89336 26.9862C9.6298 26.308 9.45002 25.5329 9.3978 24.3973C9.34625 23.2595 9.33336 22.8971 9.33336 20.0001C9.33336 17.1032 9.34669 16.7394 9.39758 15.6017C9.44869 14.4665 9.62869 13.6912 9.89314 13.0127C10.1665 12.3114 10.5309 11.7163 11.1243 11.1234C11.7172 10.5303 12.3123 10.1658 13.0138 9.89337C13.6921 9.62959 14.4672 9.44981 15.6028 9.39781Z" fill="#344054"/>
<path fill-rule="evenodd" clip-rule="evenodd" d="M19.0445 11.2556C19.2303 11.2553 19.4302 11.2554 19.6459 11.2555L20.0014 11.2556C22.8494 11.2556 23.187 11.2658 24.3116 11.3169C25.3516 11.3645 25.9161 11.5383 26.2921 11.6843C26.7899 11.8776 27.1448 12.1087 27.5179 12.4821C27.8912 12.8554 28.1223 13.2109 28.3161 13.7087C28.4621 14.0843 28.6361 14.6487 28.6835 15.6888C28.7346 16.8132 28.7457 17.151 28.7457 19.9977C28.7457 22.8444 28.7346 23.1822 28.6835 24.3066C28.6359 25.3466 28.4621 25.9111 28.3161 26.2866C28.1228 26.7844 27.8912 27.1389 27.5179 27.512C27.1446 27.8853 26.7901 28.1164 26.2921 28.3098C25.9165 28.4564 25.3516 28.6298 24.3116 28.6773C23.1872 28.7284 22.8494 28.7396 20.0014 28.7396C17.1531 28.7396 16.8156 28.7284 15.6911 28.6773C14.6511 28.6293 14.0866 28.4555 13.7104 28.3095C13.2126 28.1162 12.8571 27.8851 12.4837 27.5118C12.1104 27.1384 11.8793 26.7838 11.6855 26.2858C11.5395 25.9102 11.3655 25.3457 11.3182 24.3057C11.2671 23.1813 11.2568 22.8435 11.2568 19.995C11.2568 17.1465 11.2671 16.8105 11.3182 15.6861C11.3657 14.6461 11.5395 14.0816 11.6855 13.7056C11.8788 13.2078 12.1104 12.8523 12.4837 12.4789C12.8571 12.1056 13.2126 11.8745 13.7104 11.6807C14.0864 11.534 14.6511 11.3607 15.6911 11.3129C16.6751 11.2685 17.0565 11.2552 19.0445 11.2529V11.2556ZM25.6952 13.0267C24.9885 13.0267 24.4152 13.5994 24.4152 14.3063C24.4152 15.0129 24.9885 15.5863 25.6952 15.5863C26.4019 15.5863 26.9752 15.0129 26.9752 14.3063C26.9752 13.5996 26.4019 13.0263 25.6952 13.0263V13.0267ZM14.5236 20.0001C14.5236 16.9751 16.9762 14.5224 20.0012 14.5223C23.0264 14.5223 25.4784 16.975 25.4784 20.0001C25.4784 23.0253 23.0266 25.4769 20.0015 25.4769C16.9763 25.4769 14.5236 23.0253 14.5236 20.0001Z" fill="#344054"/>
<path d="M20.0009 16.4443C21.9645 16.4443 23.5565 18.0361 23.5565 19.9999C23.5565 21.9635 21.9645 23.5555 20.0009 23.5555C18.0371 23.5555 16.4453 21.9635 16.4453 19.9999C16.4453 18.0361 18.0371 16.4443 20.0009 16.4443Z" fill="#344054"/>
</svg>
