<svg width="182" height="21" viewBox="0 0 182 21" fill="none" xmlns="http://www.w3.org/2000/svg">
<path d="M9.47075 1.88666L16.3996 20.7128H13.6936L11.9717 15.914H4.18189L2.54193 20.7128H0L6.96981 1.88666H9.47075ZM5.08386 13.5351H11.1927L8.15878 4.96283L5.08386 13.5351Z" fill="#344054"/>
<path d="M20.581 0.410095V20.6308H18.0391V0.410095H20.581Z" fill="#344054"/>
<path d="M52.8484 20.7129H50.3064V12.5508C50.3064 10.1308 49.2814 8.69528 46.8215 8.69528C44.5666 8.69528 42.8036 9.96677 42.7216 12.1406V20.7539H40.1797V6.68552H42.7216V8.7363C43.7876 7.34177 45.5095 6.39841 47.5595 6.39841C51.1264 6.39841 52.8484 9.02341 52.8484 12.5508V20.7129Z" fill="#344054"/>
<path d="M57.3574 13.6991C57.3574 16.4882 59.2433 18.498 62.5642 18.498V20.7128C58.2183 20.7128 54.8154 17.9648 54.8154 13.6991C54.8154 9.55655 57.6854 6.39835 61.5393 6.39835C63.5482 6.39835 65.3521 7.25967 66.5411 8.6542V0.492096H69.083V20.7128H66.5411V12.5507C66.5411 10.4589 64.8192 8.61319 61.9902 8.61319C59.0383 8.61319 57.3574 10.787 57.3574 13.6991Z" fill="#344054"/>
<path d="M34.6036 6.6445V8.61325C33.4147 7.25973 31.6107 6.39841 29.6018 6.39841C25.7479 6.39841 22.8779 9.55661 22.8779 13.7402C22.8779 18.0058 26.3218 20.7539 30.6677 20.7129V18.498C27.3468 18.498 25.4199 16.4883 25.4199 13.7402C25.3789 10.7871 27.0598 8.61325 30.0527 8.61325C32.8407 8.61325 34.6036 10.4179 34.6036 12.5097L34.6446 20.6718H37.1865L37.1046 6.6445H34.6036Z" fill="#344054"/>
<path d="M79.538 6.68552V9.10544H79.292C77.0371 9.18747 74.8231 10.541 74.7001 12.6738V20.7539H72.1582V6.68552H74.7001V9.18747C75.7661 7.66989 77.5291 6.68552 79.538 6.68552Z" fill="#344054"/>
<path d="M124.432 7.34177C124.432 9.72067 123.079 11.6484 120.988 12.5508L126.727 20.7129H123.653L118.282 13.084H114.879V20.7129H112.214V1.88669H118.323C121.849 1.88669 124.432 4.22458 124.432 7.34177ZM114.879 4.14255V10.8281H118.323C120.496 10.8281 121.726 9.35153 121.726 7.34177C121.726 5.49606 120.537 4.14255 118.323 4.14255H114.879Z" fill="#344054"/>
<path d="M149.975 20.959C145.834 20.959 142.8 17.8008 142.8 13.6992C142.8 9.55664 145.875 6.39844 149.975 6.39844C151.451 6.39844 152.886 6.60352 153.993 7.17773V9.59766H153.747C152.64 8.94141 151.656 8.6543 149.975 8.6543C146.982 8.6543 145.301 10.7871 145.301 13.6992C145.301 16.6113 146.982 18.7441 149.975 18.7441C151.656 18.7441 152.64 18.416 153.747 17.7598H153.993V20.1797C152.927 20.7129 151.451 20.959 149.975 20.959Z" fill="#344054"/>
<path d="M159.075 0.492188V20.7129H156.533V0.492188H159.075ZM165.799 6.64453H168.792L162.97 13.4531L168.792 20.6719H165.512L159.895 13.5762L165.799 6.64453Z" fill="#344054"/>
<path d="M176.132 6.39844C174.615 6.39844 173.385 6.68555 172.442 7.25977L174.656 8.81836C175.066 8.73633 175.517 8.6543 176.091 8.6543C177.894 8.6543 179.001 8.98242 180.149 9.67969H180.395V7.25977C179.288 6.64453 177.689 6.39844 176.132 6.39844ZM175.804 12.4688C174.451 12.1406 173.221 11.8945 173.139 10.7461L170.843 9.14648C170.679 9.55664 170.597 10.0488 170.597 10.541C170.597 13.248 172.852 14.1504 175.353 14.6836C177.034 15.0117 178.509 15.2578 178.509 16.8574L180.723 18.416C180.928 17.9648 181.01 17.4316 181.01 16.8164C181.01 13.4121 178.181 13.002 175.804 12.4688ZM175.271 18.7441C173.344 18.7441 172.155 18.416 170.966 17.7188H170.72V20.0977C171.909 20.7539 173.631 20.959 175.312 20.959C176.624 20.959 177.935 20.7539 179.001 20.2207L176.706 18.6211C176.255 18.7031 175.804 18.7441 175.271 18.7441Z" fill="#344054"/>
<path d="M134.23 6.39844C132.755 6.39844 131.443 6.80859 130.336 7.46484L132.427 8.94141C132.959 8.73633 133.533 8.6543 134.23 8.6543C137.223 8.6543 138.904 10.7871 138.904 13.6992C138.904 15.3809 138.33 16.8164 137.264 17.7188L139.191 19.0723C140.585 17.7598 141.405 15.873 141.405 13.6992C141.405 9.55664 138.33 6.39844 134.23 6.39844ZM134.23 18.7441C131.238 18.7441 129.557 16.6113 129.557 13.6992C129.557 12.5098 129.844 11.4023 130.377 10.582L128.45 9.22852C127.548 10.459 127.015 11.9766 127.015 13.6992C127.015 17.8418 130.09 20.959 134.189 20.959C135.132 20.959 136.034 20.7949 136.854 20.5078L134.312 18.7441C134.271 18.7441 134.23 18.7441 134.23 18.7441Z" fill="#344054"/>
<path d="M105.654 8.4082V11.1152H100.365L97.0444 7.79297L96.5114 7.21875L95.8964 6.60352L95.2814 7.21875L94.7074 7.79297L93.9285 8.57227L93.3545 9.14648L92.0015 10.5L91.3865 11.1152H86.1387V8.4082H92.6165L88.0246 3.81445L89.9516 1.88672L94.5434 6.52148V0H97.2084V6.52148L101.841 1.88672L103.727 3.81445L99.1353 8.4082H105.654Z" fill="#344054"/>
<path d="M103.727 17.1855L101.841 19.0723L97.2082 14.4785V21H94.5432V14.4785L89.9514 19.0723L88.0244 17.1855L92.6163 12.5918L93.9693 11.2383L94.5432 10.6641L95.3222 9.88477L95.8962 9.31055L96.4292 9.88477L103.727 17.1855Z" fill="#F38118"/>
</svg>
