<svg width="40" height="40" viewBox="0 0 40 40" fill="none" xmlns="http://www.w3.org/2000/svg">
<path fill-rule="evenodd" clip-rule="evenodd" d="M20 0C8.9543 0 0 8.9543 0 20C0 31.0457 8.9543 40 20 40C31.0457 40 40 31.0457 40 20C40 8.9543 31.0457 0 20 0ZM13.9898 10C14.049 10.0469 14.0959 10.0469 14.1429 10.0408C14.3857 10.0204 14.5939 10.0796 14.7286 10.302C14.7523 10.3406 14.7761 10.3791 14.7999 10.4176C15.0784 10.869 15.3574 11.3211 15.6225 11.7837C15.8144 12.1181 15.9975 12.4579 16.1808 12.7981C16.3152 13.0475 16.4497 13.2972 16.5878 13.545C16.6413 13.6454 16.7081 13.74 16.7749 13.8346C16.8127 13.8881 16.8504 13.9415 16.8858 13.996C16.9709 14.1315 17.0524 14.2707 17.132 14.4066L17.145 14.4286C17.3164 14.7531 17.3082 15.0797 17.0531 15.3389C16.7846 15.6134 16.496 15.8735 16.2079 16.1331C16.1063 16.2247 16.0047 16.3162 15.9041 16.4083C15.7791 16.523 15.6522 16.636 15.5253 16.7488C15.3251 16.927 15.1251 17.105 14.9327 17.2899C14.6878 17.5267 14.6245 17.8226 14.7898 18.1348C14.8051 18.1635 14.8204 18.1921 14.8357 18.2207C15.0753 18.6696 15.3147 19.118 15.5776 19.5573C16.6143 21.2859 17.9388 22.7553 19.6123 23.888C20.2572 24.3268 20.9287 24.7288 21.6063 25.1125C22.245 25.4737 22.494 25.4125 22.9899 24.8594C23.2519 24.5685 23.5085 24.275 23.7655 23.9811C23.9611 23.7574 24.1568 23.5336 24.3553 23.3104C24.4655 23.1859 24.5981 23.0757 24.7267 22.9696C24.9879 22.7492 25.2737 22.7247 25.5737 22.8757C25.5925 22.8849 25.6116 22.8939 25.6308 22.9029C25.6969 22.9339 25.7637 22.9652 25.8206 23.0063C26.3528 23.3871 26.9269 23.693 27.5003 23.9985C27.7845 24.1499 28.0686 24.3012 28.3472 24.4615C28.6344 24.6265 28.9167 24.799 29.1982 24.9711C29.3587 25.0692 29.519 25.1672 29.6799 25.2635C29.9186 25.4043 30.0146 25.6105 29.9982 25.8941C29.9533 26.6921 29.8207 27.4758 29.3574 28.1493C29.1635 28.4289 28.888 28.6738 28.6105 28.8717C27.8411 29.4105 26.9819 29.7432 26.0676 29.9473C25.2369 30.133 24.4083 30.0656 23.6124 29.8167C22.0756 29.3432 20.5613 28.8003 19.1674 27.9779C17.9021 27.2289 16.7511 26.3248 15.6857 25.3145C14.3367 24.0308 13.1326 22.6308 12.1592 21.0369C11.5244 20.0022 11.0714 18.8879 10.6612 17.7512C10.4122 17.0654 10.1673 16.3858 10.0571 15.6593C9.93054 14.8368 10.0183 14.045 10.2816 13.2654C10.5183 12.5613 10.8142 11.8878 11.2612 11.2857C11.6122 10.8184 12.051 10.4755 12.6183 10.3225C12.9389 10.2376 13.2615 10.165 13.584 10.0923C13.7193 10.0619 13.8547 10.0314 13.9898 10Z" fill="#344054"/>
</svg>
