<svg width="7" height="7" viewBox="0 0 7 7" fill="none" xmlns="http://www.w3.org/2000/svg">
<path d="M2.79708 0.587334C2.77238 0.452736 3.00084 0.324256 3.48245 0.201895C3.97642 0.0672986 4.39011 0 4.72354 0C4.87173 0 4.93965 0.0244722 4.9273 0.0734157L3.46393 2.93667C3.45158 2.97338 3.41453 2.99173 3.35279 2.99173C3.30339 2.99173 3.27869 2.97338 3.27869 2.93667L2.79708 0.587334ZM0.444568 2.99173C0.333426 2.96726 0.277855 2.78372 0.277855 2.44111C0.277855 2.09849 0.314903 1.73141 0.388997 1.33985C0.475441 0.936063 0.549536 0.764757 0.611281 0.825938L2.92674 3.10186C2.95144 3.12633 2.95144 3.16304 2.92674 3.21198C2.91439 3.26092 2.89587 3.27928 2.87117 3.26704L0.444568 2.99173ZM3.72326 3.39552C3.69856 3.39552 3.67386 3.37105 3.64916 3.32211C3.63682 3.27316 3.64916 3.24257 3.68621 3.23033L5.77939 2.03731C5.89053 1.98837 6.05107 2.11685 6.261 2.42275C6.48329 2.71642 6.6747 3.04067 6.83524 3.39552C6.99578 3.73813 7.039 3.90332 6.9649 3.89108L3.72326 3.39552ZM2.05613 5.9284C2.04378 5.96511 1.99438 5.98346 1.90794 5.98346C1.7474 5.98346 1.50042 5.92228 1.16699 5.79992C0.845915 5.66532 0.55571 5.52461 0.296379 5.37777C0.0493965 5.2187 -0.0432219 5.12693 0.0185237 5.10246L2.90822 3.63413L2.94526 3.61577C2.98231 3.61577 3.01318 3.63413 3.03788 3.67083C3.07493 3.69531 3.08728 3.71978 3.07493 3.74425L2.05613 5.9284ZM3.38983 3.81767V3.79931C3.38983 3.77484 3.41453 3.75037 3.46393 3.7259C3.51332 3.68919 3.5442 3.67695 3.55655 3.68919L5.33482 5.32271C5.42126 5.39613 5.35334 5.58579 5.13106 5.89169C4.90877 6.18536 4.65562 6.46067 4.37159 6.71763C4.08756 6.96235 3.93937 7.048 3.92702 6.97459L3.38983 3.81767Z" fill="#344054"/>
</svg>
